<svg xmlns="http://www.w3.org/2000/svg" viewBox="0 0 1200 675" width="1200" height="675">
  <rect width="1200" height="675" fill="#09090d"/>
  <rect x="100" y="50" width="1000" height="44" rx="8" fill="#111118" stroke="#28283a" stroke-width="1"/>
  <text x="124" y="78" font-family="'Courier New',monospace" font-size="14" fill="#7c6cf6">$</text>
  <text x="144" y="78" font-family="'Courier New',monospace" font-size="14" fill="#e2e2e9">/vskit:spec-to-tasks auth</text>

  <!-- Table header -->
  <rect x="100" y="118" width="1000" height="34" rx="6" fill="#1a1a24"/>
  <text x="124" y="140" font-family="system-ui,sans-serif" font-size="11" font-weight="700" fill="#62647a" letter-spacing="1">TASK</text>
  <text x="200" y="140" font-family="system-ui,sans-serif" font-size="11" font-weight="700" fill="#62647a" letter-spacing="1">DESCRIPTION</text>
  <text x="640" y="140" font-family="system-ui,sans-serif" font-size="11" font-weight="700" fill="#62647a" letter-spacing="1">OWNER</text>
  <text x="800" y="140" font-family="system-ui,sans-serif" font-size="11" font-weight="700" fill="#62647a" letter-spacing="1">PRI</text>
  <text x="870" y="140" font-family="system-ui,sans-serif" font-size="11" font-weight="700" fill="#62647a" letter-spacing="1">LINKED ACs</text>

  <!-- Row T-01 -->
  <rect x="100" y="154" width="1000" height="50" rx="0" fill="#111118" stroke="#1e1e2a" stroke-width="1"/>
  <rect x="100" y="154" width="4" height="50" fill="#f87171"/>
  <text x="124" y="183" font-family="'Courier New',monospace" font-size="13" font-weight="700" fill="#a78bfa">T-01</text>
  <text x="200" y="183" font-family="'Courier New',monospace" font-size="13" fill="#e2e2e9">POST /auth/login — JWT generation</text>
  <text x="640" y="183" font-family="'Courier New',monospace" font-size="12" fill="#9395a8">backend-lead</text>
  <rect x="796" y="166" width="44" height="22" rx="4" fill="rgba(248,113,113,0.12)"/>
  <text x="818" y="181" font-family="system-ui,sans-serif" font-size="11" font-weight="700" fill="#f87171" text-anchor="middle">High</text>
  <text x="870" y="183" font-family="'Courier New',monospace" font-size="12" fill="#4ade80">AC-01, AC-02a</text>

  <!-- Row T-02 -->
  <rect x="100" y="206" width="1000" height="50" rx="0" fill="#111118" stroke="#1e1e2a" stroke-width="1"/>
  <rect x="100" y="206" width="4" height="50" fill="#f87171"/>
  <text x="124" y="235" font-family="'Courier New',monospace" font-size="13" font-weight="700" fill="#a78bfa">T-02</text>
  <text x="200" y="235" font-family="'Courier New',monospace" font-size="13" fill="#e2e2e9">Migration: users.refresh_token</text>
  <text x="640" y="235" font-family="'Courier New',monospace" font-size="12" fill="#9395a8">db-architect</text>
  <rect x="796" y="218" width="44" height="22" rx="4" fill="rgba(248,113,113,0.12)"/>
  <text x="818" y="233" font-family="system-ui,sans-serif" font-size="11" font-weight="700" fill="#f87171" text-anchor="middle">High</text>
  <text x="870" y="235" font-family="'Courier New',monospace" font-size="12" fill="#4ade80">AC-03</text>

  <!-- Row T-03 -->
  <rect x="100" y="258" width="1000" height="50" rx="0" fill="#111118" stroke="#1e1e2a" stroke-width="1"/>
  <rect x="100" y="258" width="4" height="50" fill="#f87171"/>
  <text x="124" y="287" font-family="'Courier New',monospace" font-size="13" font-weight="700" fill="#a78bfa">T-03</text>
  <text x="200" y="287" font-family="'Courier New',monospace" font-size="13" fill="#e2e2e9">JWT validation middleware</text>
  <text x="640" y="287" font-family="'Courier New',monospace" font-size="12" fill="#9395a8">backend-lead</text>
  <rect x="796" y="270" width="44" height="22" rx="4" fill="rgba(248,113,113,0.12)"/>
  <text x="818" y="285" font-family="system-ui,sans-serif" font-size="11" font-weight="700" fill="#f87171" text-anchor="middle">High</text>
  <text x="870" y="287" font-family="'Courier New',monospace" font-size="12" fill="#4ade80">AC-02b</text>

  <!-- Row T-04 -->
  <rect x="100" y="310" width="1000" height="50" rx="0" fill="#111118" stroke="#1e1e2a" stroke-width="1"/>
  <rect x="100" y="310" width="4" height="50" fill="#7c6cf6"/>
  <text x="124" y="339" font-family="'Courier New',monospace" font-size="13" font-weight="700" fill="#a78bfa">T-04</text>
  <text x="200" y="339" font-family="'Courier New',monospace" font-size="13" fill="#e2e2e9">Login screen</text>
  <text x="640" y="339" font-family="'Courier New',monospace" font-size="12" fill="#9395a8">frontend-lead</text>
  <rect x="796" y="322" width="56" height="22" rx="4" fill="rgba(124,108,246,0.12)"/>
  <text x="824" y="337" font-family="system-ui,sans-serif" font-size="11" font-weight="700" fill="#a78bfa" text-anchor="middle">Medium</text>
  <text x="870" y="339" font-family="'Courier New',monospace" font-size="12" fill="#4ade80">AC-04</text>

  <!-- Summary -->
  <rect x="100" y="392" width="1000" height="44" rx="8" fill="#0d0d14" stroke="#28283a" stroke-width="1"/>
  <text x="600" y="418" font-family="'Courier New',monospace" font-size="14" fill="#9395a8" text-anchor="middle">4 tasks created  ·  5/5 ACs covered  ·  no AC without a task</text>
</svg>
